<?xml version="1.0" encoding="utf-8"?>
<!-- Generator: Adobe Illustrator 22.1.0, SVG Export Plug-In . SVG Version: 6.00 Build 0)  -->
<svg version="1.1" id="Layer_1" xmlns="http://www.w3.org/2000/svg" xmlns:xlink="http://www.w3.org/1999/xlink" x="0px" y="0px"
	 viewBox="0 0 400 400" style="enable-background:new 0 0 400 400;" xml:space="preserve">
<style type="text/css">
	.st0{fill:none;stroke:#FFFFFF;stroke-width:2;stroke-linecap:round;stroke-miterlimit:10;}
	.st1{fill:none;stroke:#000000;stroke-width:4;stroke-linecap:round;stroke-miterlimit:10;}
	.st2{fill:none;stroke:#000000;stroke-width:5;stroke-linecap:round;stroke-miterlimit:10;}
	.st3{fill:none;stroke:#FFFFFF;stroke-width:2;stroke-miterlimit:10;}
	.st4{fill:none;stroke:#FFFFFF;stroke-width:3;stroke-miterlimit:10;}
</style>
<path d="M261.9,277.3c0,35.4-28.7,64.2-64.2,64.2s-64.2-28.7-64.2-64.2c0-0.2,0-0.5,0-0.7v0c0-1.4,0.1-2.8,0.2-4.2v0
	c0.1-1.4,0.3-3,0.6-4.7c0,0,0.4-2.7,1-5.4c1.4-6.6,12.3-22.4,16.1-37c3.3-12.4,2.3-27,2.3-27c30.7-37.3,58.1-36.9,82.3,0
	c-0.5,6.4-0.2,14,2.3,22c4.8,14.8,13.5,19,19.4,34.5C257.9,254.8,261.9,265.8,261.9,277.3z"/>
<ellipse cx="194.7" cy="197" rx="41.4" ry="45.1"/>
<path class="st0" d="M167.3,170.2c1.2-2.3,4-3.8,6.9-3.6c2.6,0.2,4.8,1.6,5.9,3.6"/>
<path class="st1" d="M172.2,370.1c0.3-0.5,3.4-5.9,9.2-6.1c6.3-0.2,9.8,6,9.9,6.3"/>
<line class="st2" x1="181.8" y1="313.8" x2="181.8" y2="372"/>
<path d="M181.7,267.8c-1.4,2.6-11.6,2.1-26.9-1c-8.1,2.5-22.1,5.3-38.2,7.5c-25.8,3.5-47.3,4-47.9,1.2c-0.5-2.1,10.3-5.4,26.1-8.4
	c-24.3-0.2-42.4-2.5-42.5-5.5c-0.1-2.6,13-5,31.8-6.3c-27.7-3.2-47.9-7.7-47.4-11c0.4-2.6,13.2-3.7,32.1-3.3
	c-30.1-11.5-50.2-22.3-47.9-26.4c1.1-2,7.4-2.2,17.2-0.7c-20.8-13.4-33.4-24.8-31.1-29.2c3.5-6.8,39.9,5,81.3,26.3
	c23.7,12.1,43.9,24.8,56.2,34.6c5.5,2.2,10.5,4.4,14.9,6.5c1.6,0.7,3,1.4,4.5,2.1C176.2,260.3,183,265.3,181.7,267.8z"/>
<path d="M212.7,262.7c1.3,2.7,11.5,2.6,26.9,0.3c8,2.9,21.8,6.4,37.8,9.4c25.6,4.8,47,6.3,47.8,3.5c0.6-2-10-5.9-25.7-9.6
	c24.2,1,42.5-0.4,42.7-3.4c0.2-2.6-12.7-5.6-31.5-7.8c27.8-1.8,48.2-5.4,47.9-8.7c-0.2-2.6-13-4.4-31.9-4.9
	c30.6-10,51.2-19.8,49.1-24c-1-2.1-7.2-2.5-17.1-1.6c21.4-12.3,34.5-23.1,32.5-27.7c-3.1-6.9-40.1,3.1-82.5,22.3
	c-24.2,11-45,22.6-57.8,31.8c-5.6,2-10.7,3.9-15.2,5.8c-1.6,0.7-3.1,1.3-4.6,1.9C218.5,255.6,211.4,260.2,212.7,262.7z"/>
<circle class="st3" cx="214.9" cy="180.1" r="5"/>
<circle class="st3" cx="173.7" cy="180.1" r="5"/>
<path class="st0" d="M208.5,170.2c1.2-2.3,4-3.8,6.9-3.6c2.6,0.2,4.8,1.6,5.9,3.6"/>
<line class="st2" x1="210.4" y1="313.8" x2="210.4" y2="372"/>
<path class="st1" d="M200.8,370.1c0.3-0.5,3.4-5.9,9.2-6.1c6.3-0.2,9.8,6,9.9,6.3"/>
<ellipse class="st4" cx="194.7" cy="208.1" rx="10.6" ry="27.9"/>
</svg>
