<?xml version="1.0" encoding="utf-8"?>
<!-- Generator: Adobe Illustrator 22.1.0, SVG Export Plug-In . SVG Version: 6.00 Build 0)  -->
<svg version="1.1" id="Layer_1" xmlns="http://www.w3.org/2000/svg" xmlns:xlink="http://www.w3.org/1999/xlink" x="0px" y="0px"
	 viewBox="0 0 400 400" style="enable-background:new 0 0 400 400;" xml:space="preserve">
<style type="text/css">
	.st0{fill:#FFFFFF;stroke:#FFFFFF;stroke-miterlimit:10;}
	.st1{fill:none;stroke:#FFFFFF;stroke-width:2;stroke-miterlimit:10;}
	.st2{fill:none;stroke:#FFFFFF;stroke-width:2;stroke-linecap:round;stroke-miterlimit:10;}
	.st3{fill:none;stroke:#000000;stroke-width:8;stroke-linecap:round;stroke-miterlimit:10;}
	.st4{fill:none;stroke:#000000;stroke-width:12;stroke-linecap:round;stroke-miterlimit:10;}
	.st5{display:none;}
</style>
<path d="M261.9,277.3c0,35.4-28.7,64.2-64.2,64.2s-64.2-28.7-64.2-64.2c0-0.2,0-0.5,0-0.7v0c0-1.4,0.1-2.8,0.2-4.2v0
	c0.3-2.9,0.8-6.3,1.6-10.1c4.9-24.5,18.4-64,18.4-64c30.7-37.3,58.1-36.9,82.3,0c0,0,14.6,32.6,21.7,56.5
	C260.5,261.8,261.9,269.4,261.9,277.3z"/>
<ellipse cx="194.7" cy="189" rx="41.4" ry="45.1"/>
<path class="st0" d="M195.8,232.8c-3.7-4.6-7.8-10.5-11.4-17.9c-2.2-4.5-3.8-8.7-5-12.5c0.7-2.2,2.2-5.9,5.5-9.6
	c3.6-4,7.6-5.9,9.8-6.7c2.3,1,5.8,2.9,9.2,6.3c3.3,3.3,5.1,6.7,6,8.9c-0.8,4-2.1,8.7-4.2,13.8C202.7,222.6,199,228.4,195.8,232.8z"
	/>
<circle class="st1" cx="178.7" cy="175.6" r="6.6"/>
<circle class="st1" cx="209.1" cy="175.6" r="6.6"/>
<path class="st2" d="M169.1,168.8c1.9-4.4,6.3-7.1,10.9-6.7c4.1,0.3,7.6,2.9,9.3,6.7"/>
<path class="st2" d="M199.2,169c1.9-4.4,6.3-7.1,10.9-6.7c4.1,0.3,7.6,2.9,9.3,6.7"/>
<path d="M174,373.6L174,373.6c-2.6,0-4.7-2.1-4.7-4.7v-47.7c0-2.6,2.1-4.7,4.7-4.7h0c2.6,0,4.7,2.1,4.7,4.7v47.7
	C178.7,371.4,176.6,373.6,174,373.6z"/>
<path class="st3" d="M160.5,368.3c0.4-0.7,4.9-8.5,13.2-8.8c9.1-0.4,14.1,8.6,14.3,9"/>
<path d="M218.2,373.6L218.2,373.6c-2.6,0-4.7-2.1-4.7-4.7v-47.7c0-2.6,2.1-4.7,4.7-4.7h0c2.6,0,4.7,2.1,4.7,4.7v47.7
	C222.9,371.4,220.8,373.6,218.2,373.6z"/>
<path class="st3" d="M203.3,368.3c0.4-0.7,5.2-8.5,14-8.8c9.6-0.3,14.9,8.6,15.2,9"/>
<path class="st4" d="M114.9,190.8"/>
<path d="M126.6,169.8"/>
<path class="st5" d="M124.8,169.1"/>
<path d="M177.7,232.3c-1.4,3.4-11.6,2.6-26.9-1.2c-8.1,3.2-22.1,6.9-38.2,9.7c-25.8,4.5-47.3,5.2-47.9,1.5
	c-0.5-2.7,10.3-6.9,26.1-10.7c-24.3-0.3-42.4-3.1-42.5-7c-0.1-3.3,13-6.4,31.8-8.1c-27.7-4.1-47.9-9.9-47.4-14.1
	c0.4-3.3,13.2-4.8,32.1-4.3c-30.1-14.8-50.1-28.6-47.9-33.9c2.9-6.8,41.2,3,85.6,21.8c20.9,8.9,39.5,18.2,52.9,26.2
	c1.6,0.9,3,1.9,4.5,2.7C172.2,222.8,179,229.1,177.7,232.3z"/>
<path d="M213.9,230.6c1.4,3.4,11.5,2.8,26.9-0.9c8.1,3.3,22,7.2,38.1,10.2c25.8,4.8,47.2,5.8,47.9,2.2c0.5-2.7-10.2-7-26-11.1
	c24.3,0,42.5-2.6,42.6-6.4c0.1-3.3-12.9-6.6-31.7-8.5c27.8-3.7,48-9.3,47.6-13.5c-0.3-3.3-13.1-5-32-4.7
	c30.3-14.4,50.5-27.9,48.4-33.2c-2.8-6.8-41.2,2.5-85.9,20.7c-21,8.6-39.7,17.6-53.3,25.5c-1.6,0.9-3.1,1.8-4.5,2.7
	C219.5,221.1,212.5,227.4,213.9,230.6z"/>
</svg>
