<?xml version="1.0" encoding="utf-8"?>
<!-- Generator: Adobe Illustrator 22.1.0, SVG Export Plug-In . SVG Version: 6.00 Build 0)  -->
<svg version="1.1" id="Layer_1" xmlns="http://www.w3.org/2000/svg" xmlns:xlink="http://www.w3.org/1999/xlink" x="0px" y="0px"
	 viewBox="0 0 800 100" style="enable-background:new 0 0 800 100;" xml:space="preserve">
<style type="text/css">
	.st0{fill:url(#SVGID_1_);}
</style>
<linearGradient id="SVGID_1_" gradientUnits="userSpaceOnUse" x1="400.25" y1="16.1" x2="400.25" y2="84.2">
	<stop  offset="0.1974" style="stop-color:#FFFFFF"/>
	<stop  offset="0.3711" style="stop-color:#FBFBFB"/>
	<stop  offset="0.5615" style="stop-color:#EDEDED"/>
	<stop  offset="0.759" style="stop-color:#D8D8D8"/>
	<stop  offset="0.9556" style="stop-color:#BABABA"/>
</linearGradient>
<path class="st0" d="M794.7,49.7c0,1.7-6.6,3.1-14.7,3.1c-1.6,0-3.2-0.1-4.6-0.2c-3.7,2.9-13.5,4.9-24.9,4.9
	c-9.5,0-17.9-1.4-22.5-3.5c-4.8,2.1-12.1,3.4-20.3,3.4c-11,0-20.5-2.4-24.2-5.8c-0.5,0.1-1,0.1-1.6,0.1c-3.8,0-7-1.5-7.9-3.4
	c-1.1,0-2.2,0.1-3.3,0.1c-1.4,0-2.7,0-4-0.1c0,3.9-5.3,7.1-11.8,7.1c-2.6,0-5-0.5-6.9-1.4c-3.5,2.5-8.5,4.2-14.1,4.8
	c0.1,0.3,0.1,0.6,0.1,0.9C634,66,615.7,71,593.2,71c-16,0-29.8-2.5-36.5-6.3c-4,3-9.8,4.9-16.3,4.9c-3.1,0-6.1-0.4-8.8-1.3
	c0.3,0.8,0.5,1.7,0.5,2.6c0,7.4-11.6,13.3-26,13.3s-26-6-26-13.3c0-0.7,0.1-1.4,0.3-2.1c0.4-0.2,0.8-0.4,1.2-0.5
	c-0.3,0-0.7-0.1-1-0.1c-0.1,0.2-0.2,0.4-0.2,0.7c-5.5,2.3-13.7,3.7-22.8,3.7c-6.1,0-11.8-0.6-16.5-1.8c-1.7,2.8-6.2,4.8-11.5,4.8
	c-3.1,0-5.9-0.7-8.1-1.8c-4.6,3.8-11.4,6.1-18.9,6.1c-10.3,0-19.2-4.5-23.1-10.9c-2.5,1.1-5.8,1.9-9.4,1.9c-7.4,0-13.5-2.9-13.7-6.6
	c-3.9,0.4-8.1,0.6-12.3,0.6c-20.9,0-38.5-4.9-44.5-11.6c-2,0.7-4.3,1.1-6.7,1.1c-2.5,0-4.8-0.4-6.8-1.2c-3.5,2.8-8.6,4.7-14.4,5.4
	c0,0.3,0.1,0.6,0.1,0.9c0,4-4.2,7.3-9.3,7.3c-1.7,0-3.3-0.4-4.7-1c-4.4,2.2-11.3,4.1-19.7,5.2c0.2,0.4,0.3,0.9,0.3,1.3
	c0,4.1-7.3,7.5-16.4,7.5s-16.4-3.4-16.4-7.5v-0.1c-11.6-0.7-21.6-2.5-28.2-5c-7.3,4.1-18.9,6.7-32,6.7c-4.6,0-9-0.3-13.1-0.9
	c-3.2,1.7-10.2,2.8-18.2,2.8c-4.7,0-9-0.4-12.4-1c-2.9,0.5-7.3,0.8-12.1,0.8c-8.8,0-16-1-16-2.3s7.2-2.3,16-2.3c1.5,0,3,0,4.3,0.1
	c0,0,0,0,0-0.1c0-2.5,7.7-4.5,17.6-4.8c-1.3-0.9-2.4-1.8-3.3-2.8c-2.6-0.4-5-1.2-7.1-2.4c-2.2,0.3-4.5,0.5-7,0.5
	c-5.1,0-9.6-0.7-12.9-1.9c-4,0.3-8.3,0.5-12.8,0.5c-19.9,0-36.5-3.6-40.6-8.3c-0.3,0-0.5,0-0.8,0c-11.7,0-21.2-1.9-21.2-4.2
	s9.4-4.2,21-4.2c0.3-5.7,6.9-10.2,15-10.2c6.1,0,11.3,2.5,13.6,6.2c4-0.3,8.4-0.5,12.9-0.5c9.6,0,18.5,0.8,25.5,2.2
	c3.1-5.6,10-9.6,18-9.6c8.5,0,15.8,4.4,18.5,10.5c4.6-0.8,9.7-1.2,15-1.2c0.3,0,0.6,0,0.9,0c2.4-5.4,9.2-9.3,17.2-9.3
	c8.1,0,15,4,17.3,9.6c1-0.2,2.1-0.3,3.2-0.3c6.7,0,12.2,3.4,12.6,7.8c1.3-0.2,2.7-0.3,4.1-0.4c0.7-4.1,6.2-7.4,12.9-7.4
	c6.5,0,11.9,3,12.8,7c0.1,0.4,0.2,0.9,0.2,1.3c0-0.4,0.1-0.9,0.2-1.3c0.9-4,5.8-7,11.7-7c1.7,0,3.3,0.3,4.8,0.7
	c0.7-2.8,2.6-5.3,5.5-7.4c0.5-0.4,1-0.7,1.6-1c-0.3,0-0.7,0-1.1,0c-0.4,0-0.9,0-1.3-0.1c-2-0.2-3.8-0.7-5.3-1.5
	c-0.9-0.2-1.6-0.4-2.3-0.6c-2.2,0.6-4.9,0.9-7.8,0.9c-7.3,0-13.3-2.1-13.3-4.7c0-0.6,0.3-1.1,0.9-1.7c-4.8,0-8.5-1.1-8.5-2.3
	c0-1.3,4-2.3,8.8-2.3c4.2,0,7.8,0.8,8.6,1.8c1.1-0.1,2.3-0.2,3.5-0.2c2.3,0,4.5,0.2,6.4,0.6c1.4-3,5.5-5.3,10.2-5.3
	c5.9,0,10.8,3.4,10.8,7.7c0,0.4,0,0.7-0.1,1c3.1,0.2,5.8,1,7.5,2.3c2.8,0,5.5,0.3,8,0.9c-0.1-0.4-0.1-0.8-0.1-1.2
	c0-6.8,13.1-12.3,29.3-12.3c15,0,27.4,4.7,29.1,10.9c1.6-0.3,3.4-0.5,5.2-0.5c6.4,0,11.9,2.2,13.5,5.3c13.3,0.8,24.6,3.7,31.5,7.6
	c1.5-0.3,3.1-0.5,4.8-0.5c5.5,0,10.2,2,12.5,5c0.5,0,1,0,1.5,0c6.4,0,12.2,1.7,16.7,4.5c1.9-2.7,5.1-4.5,8.6-4.5
	c5.7,0,10.3,4.5,10.5,10.1c5.2-1.5,11.9-2.5,19.2-2.5c5.2,0,10.1,0.5,14.3,1.3c2.4-3.2,7-5.3,12.2-5.3c7.7,0,14,4.7,14,10.5
	c0,0.1,0,0.1,0,0.2c2.5-0.4,5.2-0.7,8-0.7h0.2c0.9-3.4,4.7-6,9.3-6c1.3,0,2.5,0.2,3.7,0.6c2-6.3,10.7-11.1,21-11.1
	c5,0,9.6,1.1,13.3,3l0,0c3.2-1.8,8-3,13.4-3c9.1,0,16.5,3.3,17.3,7.6c2.3-0.1,4.6-0.2,7-0.3c1.2-2.5,5.6-4.3,10.8-4.3
	c1.3,0,2.5,0.1,3.6,0.3c0.9-7.1,11.2-12.7,23.8-12.7c5.8,0,11.1,1.2,15.2,3.1c4.4-3.4,14.4-5.8,26-5.8c1.7,0,3.4,0,5,0.2
	c1.6-3.4,5.9-5.8,10.9-5.8c1.9,0,3.7,0.4,5.3,1c1.2-3.2,7.3-5.6,14.6-5.6c6.1,0,11.4,1.7,13.6,4.1c2.8-0.7,6.3-1.1,10.2-1.1
	c8.8,0,16,2.1,16,4.7c0,0.1,0,0.1,0,0.2c1.6-0.1,3.4-0.2,5.3-0.2c6.8,0,12.4,0.9,12.4,2s-5.5,2-12.4,2c-3.8,0-7.3-0.3-9.5-0.7l0,0
	c-2.9,0.9-7.1,1.5-11.7,1.5c-4.8,0-9.1-0.6-12.1-1.6c-2.7,1.6-7,2.7-11.8,2.7c-3.1,0-6-0.4-8.4-1.2c0.1,0.4,0.1,0.8,0.1,1.2
	c0,1.2-0.3,2.2-0.8,3.3c1.1,1,1.6,2.1,1.6,3.3c0,0.4-0.1,0.8-0.2,1.2c2.8-0.4,5.8-0.6,8.9-0.6c10.7,0,19.9,2.2,23.9,5.4
	c4.8-1.4,11.5-2.3,19-2.3c10.6,0,19.7,1.8,24,4.3c1.7-0.2,3.6-0.2,5.5-0.2C788.1,46.6,794.7,48,794.7,49.7z"/>
</svg>
