<?xml version="1.0" encoding="utf-8"?>
<!-- Generator: Adobe Illustrator 22.1.0, SVG Export Plug-In . SVG Version: 6.00 Build 0)  -->
<svg version="1.1" id="Layer_1" xmlns="http://www.w3.org/2000/svg" xmlns:xlink="http://www.w3.org/1999/xlink" x="0px" y="0px"
	 viewBox="0 0 200 100" style="enable-background:new 0 0 200 100;" xml:space="preserve">
<style type="text/css">
	.st0{fill:#FFFFFF;stroke:#E6E6E6;stroke-miterlimit:10;}
</style>
<path class="st0" d="M179,45.6c0,3.3-7.8,6-17.3,6c-1.6,0-3.2-0.1-4.8-0.2c-2.4,6.2-26,11-54.7,11c-10.9,0-21-0.7-29.5-1.9
	c-1.8,1.1-6.5,1.9-12,1.9c-7.1,0-12.8-1.3-12.8-2.9c0-1.2,3.4-2.3,8.1-2.7c-0.3-0.1-0.5-0.2-0.8-0.3c-2.6,0.4-5.5,0.6-8.6,0.6
	c-9.8,0-17.8-2.1-17.8-4.6c0-2.5,8-4.6,17.8-4.6c0.6,0,1.2,0,1.8,0c2.5-2.7,9.1-5.1,18.5-6.9v0c0-5.1,5-9.2,11.2-9.2
	c3.1,0,5.9,1,7.9,2.7c2-4.3,7.7-7.5,14.4-7.5c7,0,12.8,3.4,14.6,8c7.3,0.9,12.7,2.6,14.4,4.8c0,0.1,0.1,0.1,0.1,0.2
	c0-0.1,0.1-0.1,0.1-0.2c2.3-3.2,8.4-5.4,15.6-5.4c7,0,13,2.2,15.4,5.2c0.4,0,0.8,0,1.1,0C171.2,39.6,179,42.3,179,45.6z"/>
</svg>
