<?xml version="1.0" encoding="utf-8"?>
<!-- Generator: Adobe Illustrator 22.1.0, SVG Export Plug-In . SVG Version: 6.00 Build 0)  -->
<svg version="1.1" id="Layer_1" xmlns="http://www.w3.org/2000/svg" xmlns:xlink="http://www.w3.org/1999/xlink" x="0px" y="0px"
	 viewBox="0 0 800 200" style="enable-background:new 0 0 800 200;" xml:space="preserve">
<style type="text/css">
	.st0{fill:#FFFFFF;}
</style>
<path class="st0" d="M784.7,70.3c0,3.2-12.3,5.7-27.5,5.7c-3.1,0-6-0.1-8.8-0.3c-12.2,4.7-36.6,7.9-64.8,7.9
	c-11,0-21.4-0.5-30.8-1.4c0.1,0.5,0.2,0.9,0.2,1.4c0,5.5-9.3,10.3-23.6,13.3c-2.6,7.8-26,14-54.4,14c-4.1,0-8.1-0.1-12-0.4
	c-8.5,4.9-21,8-34.9,8c-1.4,0-2.9,0-4.3-0.1c-2.9,5.5-10.9,9.4-20.3,9.4c-2.4,0-4.8-0.3-7-0.7c-3.2,2.7-7.1,5.1-11.4,7.2
	c0.3,0.8,0.4,1.7,0.4,2.7c0,5.6-5.7,10.1-12.7,10.1c-0.2,0-0.4,0-0.6,0c-4.1,4.9-13.1,8.3-23.5,8.3c-14.3,0-25.9-6.4-25.9-14.2
	c0-0.5,0-1,0.1-1.5c-18.9-4.6-33.1-14.7-36.9-26.8c-2.8,0.8-5.9,1.2-9.2,1.2c-9.9,0-18.3-3.8-21.5-9.2c-6.9,3.7-17.7,6.1-29.9,6.1
	c-1.4,0-2.7,0-4.1-0.1c-5.4,3.1-12.4,5.9-20.5,8.3c1.1,1.2,1.8,2.5,1.8,3.8c0,5.9-11.7,10.6-26.2,10.6c-10.9,0-20.2-2.7-24.2-6.5
	c-6.1,0.4-12.4,0.6-18.8,0.6c-55.9,0-101.3-15-101.3-33.4c0,0,0,0,0,0c-0.8,0-1.6,0-2.3,0c-23.3,0-43.5-3.4-53.2-8.2
	c-4.3,0.9-9.4,1.5-15,1.5c-6.3,0-12.1-0.7-16.7-1.9c-3.2,0.8-7.2,1.3-11.6,1.3c-10.4,0-18.9-2.8-18.9-6.3c0-3.5,8.5-6.3,18.9-6.3
	c1.6,0,3.1,0.1,4.6,0.2c4.6-2.7,13.5-4.6,23.7-4.6c3.2,0,6.2,0.2,9,0.5c1.4-5.4,8.9-9.6,17.9-9.6c0.7,0,1.4,0,2.1,0.1
	c2.6-7.9,15.3-13.8,30.6-13.8c15.2,0,27.9,5.9,30.6,13.8c4.9-1.8,11.5-2.9,18.7-2.9c9.3,0,17.5,1.8,22.6,4.6
	c3.3-7.2,12.2-12.4,22.7-12.4c3.7,0,7.2,0.7,10.3,1.8c4-9.5,14.2-16.3,26.2-16.3c12.1,0,22.4,6.9,26.3,16.6
	c4.4-1.3,9.4-2.1,14.6-2.1c7.9,0,15.1,1.7,20.7,4.4c5.8-0.8,12.5-1.3,19.7-1.3c8.9,0,17.2,0.7,23.7,1.9c4.2-3.1,10-5.1,16.5-5.1
	c11.5,0,21,6.1,22.8,14.1c4.1,0.7,8,1.5,11.4,2.5c3.4-5.2,11.4-8.8,20.6-8.8c8.9,0,16.6,3.4,20.2,8.3c3.4-3.3,8.6-5.4,14.4-5.4
	c2.8,0,5.5,0.5,7.9,1.4c4.3-4.8,11-7.9,18.6-7.9c9.1,0,17,4.5,20.8,11c2.9-0.9,6.2-1.4,9.8-1.4c9.6,0,17.6,3.6,19.7,8.5
	c2.6-4.5,9.9-7.8,18.6-7.8c3.7,0,7.2,0.6,10.1,1.6c4.2-9.3,18.4-16.2,35.3-16.2c9.9,0,18.8,2.3,25.4,6.1c4.6-3.6,14.4-6.1,25.6-6.1
	c9.1,0,17.2,1.6,22.5,4.2c2,0,4,0,6,0c33,0,60.8,4.4,69.9,10.4c1.2,0,2.4,0,3.6,0C772.4,64.6,784.7,67.1,784.7,70.3z"/>
</svg>
