<?xml version="1.0" encoding="utf-8"?>
<!-- Generator: Adobe Illustrator 22.1.0, SVG Export Plug-In . SVG Version: 6.00 Build 0)  -->
<svg version="1.1" id="Layer_2_1_" xmlns="http://www.w3.org/2000/svg" xmlns:xlink="http://www.w3.org/1999/xlink" x="0px" y="0px"
	 viewBox="0 0 800 100" style="enable-background:new 0 0 800 100;" xml:space="preserve">
<style type="text/css">
	.st0{fill:url(#SVGID_1_);}
</style>
<g id="Layer_1">
	<linearGradient id="SVGID_1_" gradientUnits="userSpaceOnUse" x1="418.05" y1="19" x2="418.05" y2="82.9">
		<stop  offset="0.147" style="stop-color:#FFFFFF"/>
		<stop  offset="0.2721" style="stop-color:#F6F6F6"/>
		<stop  offset="0.476" style="stop-color:#DEDEDE"/>
		<stop  offset="0.7315" style="stop-color:#B6B6B6"/>
		<stop  offset="0.9521" style="stop-color:#8F8F8F"/>
	</linearGradient>
	<path class="st0" d="M783.5,59.9c0,2.4-9.4,4.3-21,4.3c-3.3,0-6.3-0.2-9.1-0.4c-3.2,3.7-13.3,6.4-25.2,6.4c-3.9,0-7.7-0.3-11-0.8
		c-2.6,1.4-7.1,2.3-12.3,2.3s-9.8-1-12.5-2.5c-2.2,0.8-5.5,1.3-9,1.3c-5.7,0-10.5-1.3-11.9-2.9c-1.9,1-4,1.6-6.2,1.6
		c-1.7,0-3.3-0.3-4.8-0.9c-2.4,0.4-5.1,0.7-8,0.8c0.2,0.3,0.3,0.6,0.3,1c0,1.9-2.9,3.4-6.5,3.4c-1.5,0-2.8-0.3-3.9-0.7
		c-3.1,1.9-8.5,3.1-14.6,3.1c-7,0-13-1.6-15.8-3.9c-4.8,0.5-10.1,0.9-15.7,1c0,0.2,0.1,0.3,0.1,0.5c0,3-6.9,5.5-15.4,5.5
		c-6.2,0-11.6-1.3-14-3.2c-4.1,2-10.8,3.2-18.3,3.2c-10.5,0-19.4-2.5-21.9-5.9c-0.8,0-1.7,0-2.6,0c-11.8,0-22.5-1.1-30.5-3
		c-0.9,3.3-5.3,5.8-10.6,5.8c-2.2,0-4.3-0.4-6-1.2l0,0c-2.5,0.8-5.5,1.2-8.7,1.2c-5.6,0-10.5-1.4-13.2-3.4
		c-3.5,0.4-7.8,0.7-12.3,0.7c-7.4,0-14-0.6-18-1.6c-3.5,1-7.9,1.6-12.7,1.6c-7.8,0-14.6-1.6-18.2-4c-0.8,0-1.6,0-2.4,0
		c0.1,0.2,0.1,0.4,0.1,0.5c0,2.1-4.6,3.8-10.3,3.8c-2.5,0-4.9-0.3-6.7-0.9l0,0c-3,2-7.6,3.3-12.9,3.3c-5.5,0-10.4-1.4-13.4-3.6
		c-3.7,2.2-8.9,3.6-14.6,3.6c-9.5,0-17.5-3.9-19.9-9.1c-7.8-0.2-15.1-0.8-21.4-1.9c-0.1,0-0.1-0.1-0.2-0.1s-0.1,0.1-0.2,0.1
		c0.1,0,0.2,0.1,0.4,0.1c0.7,0.5,1,1,1,1.6c0,2.4-6.6,4.3-14.7,4.3c-4.6,0-8.8-0.6-11.5-1.6c-1.1,0-2.1,0-3.2,0
		c-1.8,0-3.6,0-5.3-0.1c-0.3,3.8-7.3,6.8-16,6.8c-4.4,0-8.4-0.8-11.3-2.1c-7.6,1.7-17.1,2.9-27.5,3.4c0,0.1,0,0.1,0,0.2
		c0,3-9.5,5.4-21.1,5.4c-11.7,0-21.1-2.4-21.1-5.4c0-0.3,0.1-0.5,0.2-0.7c0.5-0.3,0.9-0.7,1.3-1.1c0.1-0.1,0.2-0.2,0.3-0.4
		c-0.2,0.1-0.4,0.2-0.5,0.3c-0.5,0.4-0.9,0.7-1.1,1.1c-2.2,1.4-5.7,2.4-9.7,2.4c-6.6,0-12-2.6-12-5.8c0-0.1,0-0.2,0-0.3
		c-1,0.1-2.1,0.2-3.2,0.2c-13.9,0-25.1-8.6-25.1-19.2c0-0.3,0-0.7,0-1c-5.2-1.4-9-4.3-9.7-7.7c-6.2-0.3-11.4-3.4-13.2-7.8
		c-3,0.6-6.4,1-10.2,1c-7.1,0-13.3-1.3-16.9-3.3c-0.5,0-1,0.1-1.5,0.1c-4.3,0-7.9-1.3-7.9-3c0-1.6,3.1-2.9,7.1-3
		c2.5-2.9,10.1-5,19.1-5c0.5,0,1.1,0,1.6,0c0.6-3,4-5.3,8-5.3s7.3,2.2,8,5.1c2-0.8,4.2-1.2,6.5-1.2c4.3,0,8.2,1.4,10.9,3.7
		c4.4-2.3,10.3-3.7,16.8-3.7c10.8,0,19.9,3.8,23.3,9.1c1.9-1,4-1.6,6.3-1.6c4.8,0,9,2.6,11.3,6.5c1.7-1.4,4-2.2,6.4-2.2
		c0.5,0,1,0,1.5,0.1c1.2-2,3-3.7,5.2-4.9c-0.1-0.5-0.2-1.1-0.2-1.7c0-4,3.3-7.3,7.3-7.3s7.3,3.3,7.3,7.3c0,0.3,0,0.7-0.1,1
		c2.9,1.2,5.2,3.1,6.6,5.5c0.2,0,0.4,0,0.6,0c3.8,0,7.1,2.4,8.4,5.8c1.6-0.8,3.6-1.3,5.8-1.6c0.1-4.7,3.9-8.5,8.6-8.5
		c1.7,0,3.2,0.5,4.5,1.3c1.3-2.2,3.3-3.7,5.6-3.7c3.4,0,6.3,3.2,6.9,7.5c2.9-1.3,6.4-2.1,10.2-2.3c-0.1-0.4-0.2-0.8-0.2-1.3
		c0-2.2,1.8-3.9,3.9-3.9c2.2,0,3.9,1.8,3.9,3.9c0,0.5-0.1,1.1-0.3,1.5c0.1,0,0.2,0,0.3,0c0-0.1,0-0.2,0-0.2
		c0-5.7,4.6-10.3,10.4-10.3c4.7,0,8.7,3.2,10,7.5c2.3,0.1,4.4,0.9,6.2,2.2c2.1-2.7,6-4.6,10.4-4.6c1.7,0,3.4,0.3,4.9,0.8
		c2.5-4.6,9.7-7.8,18.3-7.8c6.9,0,13,2.2,16.4,5.4c0.9-0.2,1.9-0.3,2.8-0.3c4.1,0,7.7,1.8,9.6,4.5c0.8-0.1,1.6-0.2,2.4-0.2
		c3.1,0,5.9,1,8,2.6c1.6-4,5.6-6.9,10.2-6.9c3.2,0,6.1,1.4,8.1,3.6c2.9-2.2,7.4-3.6,12.4-3.6c6.2,0,11.6,2.1,14.2,5.3
		c3.7-0.6,7.7-0.9,11.9-0.9c0.7,0,1.4,0,2,0c1.3-2.5,5.5-4.3,10.5-4.3c5.1,0,9.3,1.9,10.6,4.5c2.2-2.7,5.6-4.5,9.4-4.5
		c4.5,0,8.4,2.4,10.5,6c0.9-0.1,1.8-0.1,2.7-0.1c7.3,0,13.2,3.1,13.2,7c2.8,0,5.5,0.1,8.1,0.3c0.6-5,5.6-8.8,11.5-8.8
		c2.9,0,5.5,0.9,7.5,2.4c1.9-5.7,7.8-9.9,14.7-9.9c8,0,14.6,5.5,15.3,12.6h0.1c3.3,0,6.2,1,8.2,2.6c1.5-1.6,3.5-3,5.8-4.1
		c0.5-4.6,3.3-8.1,6.8-8.1c1.7,0,3.3,0.9,4.5,2.4c0.7-0.3,1.5-0.4,2.3-0.4c3.1,0,5.8,2.4,6.1,5.4c3.9,1.4,7,3.6,8.8,6.3
		c1.6-0.5,3.3-0.8,5.1-0.8c3.5,0,6.6,1.1,9,2.9c2.7-2.2,6.5-3.6,10.6-3.6c3.6,0,6.8,1,9.4,2.8c1.9-4.5,7.6-7.8,14.5-7.8
		c3.4,0,6.5,0.8,9,2.1c1.6-5.3,6.5-9.2,12.4-9.2c6.2,0,11.4,4.4,12.7,10.3c1.1-0.3,2.3-0.5,3.4-0.5c5.6,0,10.5,3.7,12.9,9.1
		c1.4-0.6,3-1,4.7-1c4.3,0,7.9,2.1,9.2,5.1c0.7,0.1,1.4,0.1,2.1,0.2c1.3-1.7,3.4-2.8,5.8-2.8c3.1,0,5.7,1.9,6.8,4.5
		c1.2-0.6,2.6-1,4.2-1c2.8,0,5.3,1.2,6.5,3c0.6-0.1,1.1-0.2,1.7-0.2c1.8-2.4,6.5-4,11.9-4c5.2,0,9.7,1.5,11.7,3.8
		c-0.5,0.3-1,0.6-1.4,1c0.8,0.2,1.5,0.3,2.3,0.5c-0.2-0.5-0.5-1-0.9-1.5c1.3-0.7,3-1.1,4.8-1.1c3.9,0,7.2,2,7.5,4.5
		c0.2,0,0.3,0,0.5,0c0.9-1.1,3.4-2,6.2-2s5.2,0.8,6.1,1.9C776.9,56.3,783.5,58,783.5,59.9z"/>
</g>
</svg>
