<?xml version="1.0" encoding="utf-8"?>
<!-- Generator: Adobe Illustrator 22.1.0, SVG Export Plug-In . SVG Version: 6.00 Build 0)  -->
<svg version="1.1" id="Layer_1" xmlns="http://www.w3.org/2000/svg" xmlns:xlink="http://www.w3.org/1999/xlink" x="0px" y="0px"
	 viewBox="0 0 200 100" style="enable-background:new 0 0 200 100;" xml:space="preserve">
<style type="text/css">
	.st0{fill:#FFFFFF;stroke:#CCCCCC;stroke-miterlimit:10;}
	.st1{fill:#FFFFFF;stroke:#E6E6E6;stroke-miterlimit:10;}
</style>
<path class="st0" d="M126.6,41.1c-0.2,0-0.5,0-0.7,0c0.1-0.1,0.1-0.3,0.2-0.4C126.3,40.8,126.4,40.9,126.6,41.1z"/>
<path class="st0" d="M126.6,41.1c-0.2,0-0.5,0-0.7,0c0.1-0.1,0.1-0.3,0.2-0.4C126.3,40.8,126.4,40.9,126.6,41.1z"/>
<path class="st1" d="M155.6,47.8c2.5,1,3.9,2.1,3.9,3.2c0,5.3-30.4,9.6-67.9,9.6c-27.2,0-50.6-2.3-61.5-5.5
	c-2.1,0.1-4.4,0.2-6.8,0.2c-9.4,0-17-1.2-17-2.7s7.6-2.7,17-2.7h0.8c1.8-2.3,9.5-4.4,21-5.9c0.8-2.3,6.6-4.1,13.5-4.1
	c2.7,0,5.3,0.3,7.4,0.8c4.2-2.8,16.1-4.8,30.1-4.8c14,0,25.8,2,30,4.8c-0.1,0.1,0.2,0.1,0,0c1.3-1.6,5.3-2.8,10.1-2.8
	c4.7,0,8.6,1.1,10,2.7c21.3,0,38.5,1.7,38.5,3.7C184.7,46,172.3,47.4,155.6,47.8z"/>
</svg>
