<?xml version="1.0" encoding="utf-8"?>
<!-- Generator: Adobe Illustrator 22.1.0, SVG Export Plug-In . SVG Version: 6.00 Build 0)  -->
<svg version="1.1" id="Layer_1" xmlns="http://www.w3.org/2000/svg" xmlns:xlink="http://www.w3.org/1999/xlink" x="0px" y="0px"
	 viewBox="0 0 800 200" style="enable-background:new 0 0 800 200;" xml:space="preserve">
<style type="text/css">
	.st0{fill:#FFFFFF;}
</style>
<path class="st0" d="M789,124.6c0,3.4-14.3,6.2-31.9,6.2c-6.2,0-12-0.3-16.9-0.9c-3.5,4.4-15.1,7.6-28.9,7.6c-7.2,0-13.8-0.9-19-2.3
	c-2.6,4.6-9,7.9-16.4,7.9c-9.7,0-17.5-5.4-17.6-12.2c-12.2,0-23.1-1.7-30.5-4.3c-5.1,6.6-15.1,11-26.7,11c-11.8,0-22-4.7-27-11.4
	c-7.7,3-17.4,4.8-28,4.8c-6.5,0-12.6-0.7-18.2-1.9c-1.5-0.3-3-0.7-4.4-1.1c-0.2,0.2-0.3,0.5-0.5,0.7c-8.7,12.7-31.2,21.7-57.5,21.7
	c-16,0-30.6-3.3-41.5-8.8c-8.1,5.4-21,8.8-35.4,8.8c-9.5,0-18.3-1.5-25.5-4c-19.3,18.1-54.2,30.1-93.9,30.1
	c-56.5,0-103.1-24.3-109.3-55.7c-3.2,1.1-7,1.8-11,1.8c-5.8,0-11.1-1.4-14.9-3.6c-7.4,7-25.7,11.9-47,11.9c-23.4,0-43.1-5.9-48.9-14
	c-11.1-0.2-20-4.5-20-9.8c0-5.4,9.3-9.8,20.8-9.8c4.3,0,8.3,0.6,11.6,1.7c8.4-3.2,19.8-5.4,32.6-5.7c-0.7-1.5-1.1-3-1.1-4.5
	c0-13.8,30.5-25,68-25c3.2,0,6.3,0.1,9.3,0.2c2-9.2,21-16.3,44.3-16.3c13.3,0,25.2,2.4,33.3,6.1c10.2-1.8,21-2.7,32.2-2.7
	c2.3,0,4.5,0,6.8,0.1c5-14.4,24.7-25.1,48.2-25.1c18.6,0,34.8,6.7,43.2,16.6c4.2-0.7,8.6-1,13.2-1c29.3,0,53.7,14.5,59.1,33.8
	c1.5-0.3,3.1-0.5,4.8-0.5c6.9,0,12.9,2.9,15.9,7.2c1.2-0.1,2.4-0.2,3.6-0.2c9.6-13.6,36-23.6,67.7-24.7c4.4-7.6,14.3-12.8,25.9-12.8
	c15.2,0,27.6,9.2,28.3,20.7c13.9,5.2,23.9,12.7,27.5,21.2c5.2-1.7,11.6-2.7,18.5-2.7c17,0,30.7,5.9,30.7,13.3c0,3.6-3.4,6.9-8.8,9.3
	c1.5-0.1,3.1-0.1,4.7-0.1c21.7,0,39.3,5.3,40.2,12c3.9-0.6,8.2-1,12.8-1c2.7,0,5.4,0.1,8,0.4c2.3-2.1,6.6-3.6,11.5-3.6
	c6.1,0,11.3,2.3,12.9,5.3c4.1-0.4,8.7-0.6,13.5-0.6C774.7,118.4,789,121.2,789,124.6z"/>
</svg>
