<?xml version="1.0" encoding="utf-8"?>
<!-- Generator: Adobe Illustrator 22.1.0, SVG Export Plug-In . SVG Version: 6.00 Build 0)  -->
<svg version="1.1" id="Layer_1" xmlns="http://www.w3.org/2000/svg" xmlns:xlink="http://www.w3.org/1999/xlink" x="0px" y="0px"
	 viewBox="0 0 800 400" style="enable-background:new 0 0 800 400;" xml:space="preserve">
<style type="text/css">
	.st0{fill:#FFFFFF;}
</style>
<path class="st0" d="M777,130.7c0,6.4-25.3,11.7-56.5,11.7c-14.1,0-27.1-1.1-37-2.9c-1.9,10-15.6,18.2-34,21c0,0.3,0,0.7,0,1
	c0,16.4-29.1,29.4-65.2,29.4c-14-0.7-27.1-2.7-37.8-6.4c-1,3.7-2.7,7.4-5.7,11c20.1,1.6,38,5.3,51.3,10.5c7.3-1.4,15.9-2.2,25.3-2.2
	c15.6,0,29.5,2.2,37.9,5.6c2.1-0.6,4.6-1,7.3-1c7.5,0,13.8,2.9,15,6.7h0.2c19.6,0,35.5,2.8,35.5,6.2c0,3.4-15.9,6.2-35.5,6.2
	c-9.5,0-18.2-0.7-24.6-1.7c-4.4,1.5-9.9,2.7-16.1,3.6c-3.3,6.2-14.4,11.1-28.6,12.7c-14.8,11.7-48,19.8-86.8,19.8
	c-35.1,0-65.9-6.7-82.3-16.7c-7,8.7-20.1,14.7-36.1,16.4c-1.3,20.4-23.1,36.8-49.5,36.8c-10,0-19.1-2.3-26.8-6
	c-20.4,6.7-44.1,10.4-69.6,10.4c-75.2,0-136.1-33.1-136.1-73.6c0-3.4,0.3-6.7,1.3-9.7c-18.4-4-32.1-16.4-32.1-31.4
	c0-1.3,0-2.7,0.3-4c-14.4-0.3-26.4-6.8-28.7-15.7c-1.3,0.1-2.7,0.2-4,0.2C46,168.8,36,164,36,158.1c0-5.9,10-10.6,22.3-10.6
	c6.1,0,11.6,1.1,15.6,3c5-2.3,11.1-3.7,17.8-3.7c12,0,22.4,4.4,27.1,11c5-1.3,10.7-2.3,16.4-2.3c12.4,0,23.8,4,31.8,10
	c5.3-15.4,21.4-26.8,40.1-26.8h1c4.7-21.4,24.1-37.1,47.5-37.1c20.1,0,37.1,11.7,44.5,28.4c9.4-4.4,21.1-7,33.4-7
	c9,0,17.4,1.3,24.8,3.7c4-20.7,33.1-36.5,68.2-36.5c28.8,0,53.2,10.7,63.5,25.8c5.4-1,11-1.7,16.7-1.7c21.7,0,40.8,8.4,49.2,20.7
	c6.6-1.5,13.7-2.5,21.2-2.8c1.1-6.6,8-11.7,16.4-11.7c2,0,3.9,0.3,5.7,0.8h0c8.8-5.3,21.9-8.6,36.5-8.6c6.6,0,12.9,0.7,18.6,1.9
	c1.4-7.8,9.5-13.8,19.2-13.8c8.9,0,16.4,5,18.7,11.9c0.4,0,0.7,0,1.1,0c9.7,0,17.7,2.7,19.5,6.3c2.5-0.1,5-0.1,7.6-0.1
	C751.7,119,777,124.2,777,130.7z"/>
</svg>
