<?xml version="1.0" encoding="utf-8"?>
<!-- Generator: Adobe Illustrator 22.1.0, SVG Export Plug-In . SVG Version: 6.00 Build 0)  -->
<svg version="1.1" id="Layer_1" xmlns="http://www.w3.org/2000/svg" xmlns:xlink="http://www.w3.org/1999/xlink" x="0px" y="0px"
	 viewBox="0 0 200 100" style="enable-background:new 0 0 200 100;" xml:space="preserve">
<style type="text/css">
	.st0{fill:#FFFFFF;stroke:#E6E6E6;stroke-miterlimit:10;}
</style>
<path class="st0" d="M159.5,48.1c-0.3,1.1-0.8,2.2-1.7,3.3c12.9,1,22.7,5,22.7,9.9c0,5.5-12.7,10-28.4,10c-10.5,0-19.7-2-24.6-5
	c-2.1,2.6-6,4.4-10.8,4.9c-0.4,6.1-6.9,11-14.8,11c-3,0-5.7-0.7-8-1.8c-6.1,2-13.2,3.1-20.8,3.1c-22.5,0-40.7-9.9-40.7-22
	c0-1,0.1-2,0.4-2.9c-5.5-1.2-9.6-4.9-9.6-9.4c0-0.4,0-0.8,0.1-1.2c-4.8-0.1-8.7-2.5-8.7-5.6c0-3.1,4-5.6,8.9-5.6
	c3.6,0,6.7,1.3,8.1,3.3c1.5-0.4,3.2-0.7,4.9-0.7c3.7,0,7.1,1.2,9.5,3c1.6-4.6,6.4-8,12-8h0.3c1.4-6.4,7.2-11.1,14.2-11.1
	c6,0,11.1,3.5,13.3,8.5c2.8-1.3,6.3-2.1,10-2.1c2.7,0,5.2,0.4,7.4,1.1c1.2-6.2,9.9-10.9,20.4-10.9c8.6,0,15.9,3.2,19,7.7
	c1.6-0.3,3.3-0.5,5-0.5c6.5,0,12.2,2.5,14.7,6.2c2.6-0.6,5.4-0.9,8.5-0.9c10.8,0,19.5,3.9,19.5,8.8s-8.7,8.8-19.5,8.8
	C166.6,49.8,162.7,49.2,159.5,48.1z"/>
</svg>
