<?xml version="1.0" encoding="utf-8"?>
<!-- Generator: Adobe Illustrator 22.1.0, SVG Export Plug-In . SVG Version: 6.00 Build 0)  -->
<svg version="1.1" xmlns="http://www.w3.org/2000/svg" xmlns:xlink="http://www.w3.org/1999/xlink" x="0px" y="0px"
	 viewBox="0 0 800 200" style="enable-background:new 0 0 800 200;" xml:space="preserve">
<style type="text/css">
	.st0{display:none;fill:#CCCCCC;stroke:#999999;stroke-miterlimit:10;}
	.st1{fill:#999999;}
</style>
<g id="Layer_1">
	<path class="st0" d="M768.4,181.8H32.5l-1-93.5c230.3-81.8,477.6-71,735.9,0L768.4,181.8z"/>
	<g>
		<path class="st1" d="M57.5,83L59,70.5L60.5,83c0.1,0.8-0.5,1.6-1.3,1.7s-1.6-0.5-1.7-1.3C57.5,83.2,57.5,83.1,57.5,83z"/>
	</g>
	<g>
		<path class="st1" d="M248.8,104l1.5-12.3l1.5,12.3c0.1,0.8-0.5,1.6-1.3,1.7s-1.6-0.5-1.7-1.3C248.7,104.2,248.7,104.1,248.8,104z"
			/>
	</g>
	<g>
		<path class="st1" d="M366,169.3l1.5-20.5l1.5,20.5c0.1,0.8-0.6,1.5-1.4,1.6c-0.8,0.1-1.5-0.6-1.6-1.4
			C366,169.4,366,169.3,366,169.3z"/>
	</g>
	<g>
		<path class="st1" d="M132,84.3l1.5-13.8l1.5,13.8c0.1,0.8-0.5,1.6-1.3,1.7c-0.8,0.1-1.6-0.5-1.7-1.3C132,84.5,132,84.4,132,84.3z"
			/>
	</g>
	<g>
		<path class="st1" d="M112,66.3l1.5-12l1.5,12c0.1,0.8-0.5,1.6-1.3,1.7s-1.6-0.5-1.7-1.3C112,66.5,112,66.4,112,66.3z"/>
	</g>
	<g>
		<path class="st1" d="M57.5,167.3l1.5-14.5l1.5,14.5c0.1,0.8-0.5,1.6-1.3,1.7c-0.8,0.1-1.6-0.5-1.7-1.3
			C57.5,167.5,57.5,167.3,57.5,167.3z"/>
	</g>
	<g>
		<path class="st1" d="M130.3,161.5l1.5-11l1.5,11c0.1,0.8-0.5,1.6-1.3,1.7c-0.8,0.1-1.6-0.5-1.7-1.3
			C130.2,161.8,130.2,161.6,130.3,161.5z"/>
	</g>
	<g>
		<path class="st1" d="M211.5,127.5L213,113l1.5,14.5c0.1,0.8-0.5,1.6-1.3,1.7c-0.8,0.1-1.6-0.5-1.7-1.3
			C211.5,127.7,211.5,127.6,211.5,127.5z"/>
	</g>
	<g>
		<path class="st1" d="M38.5,122.3L40,113l1.5,9.3c0.1,0.8-0.4,1.6-1.3,1.7c-0.8,0.1-1.6-0.4-1.7-1.3
			C38.5,122.6,38.5,122.4,38.5,122.3z"/>
	</g>
	<g>
		<path class="st1" d="M224.8,63.5l1.5-11l1.5,11c0.1,0.8-0.5,1.6-1.3,1.7s-1.6-0.5-1.7-1.3C224.7,63.8,224.7,63.6,224.8,63.5z"/>
	</g>
	<g>
		<path class="st1" d="M261.5,39.3l1.5-11.5l1.5,11.5c0.1,0.8-0.5,1.6-1.3,1.7s-1.6-0.5-1.7-1.3C261.5,39.5,261.5,39.4,261.5,39.3z"
			/>
	</g>
	<g>
		<path class="st1" d="M367.5,88.5l1.5-13.3l1.5,13.3c0.1,0.8-0.5,1.6-1.3,1.7c-0.8,0.1-1.6-0.5-1.7-1.3
			C367.5,88.7,367.5,88.6,367.5,88.5z"/>
	</g>
	<g>
		<path class="st1" d="M345.5,33.5l1.5-12l1.5,12c0.1,0.8-0.5,1.6-1.3,1.7s-1.6-0.5-1.7-1.3C345.5,33.8,345.5,33.6,345.5,33.5z"/>
	</g>
	<g>
		<path class="st1" d="M426.3,58l1.5-11.8l1.5,11.8c0.1,0.8-0.5,1.6-1.3,1.7c-0.8,0.1-1.6-0.5-1.7-1.3
			C426.2,58.3,426.2,58.1,426.3,58z"/>
	</g>
	<g>
		<path class="st1" d="M418.3,139.3l1.5-14.8l1.5,14.8c0.1,0.8-0.5,1.6-1.3,1.7c-0.8,0.1-1.6-0.5-1.7-1.3
			C418.2,139.5,418.2,139.3,418.3,139.3z"/>
	</g>
	<g>
		<path class="st1" d="M472.5,171.8L474,159l1.5,12.8c0.1,0.8-0.5,1.6-1.3,1.7c-0.8,0.1-1.6-0.5-1.7-1.3
			C472.5,172,472.5,171.9,472.5,171.8z"/>
	</g>
	<g>
		<path class="st1" d="M459.5,102.5l1.5-16.3l1.5,16.3c0.1,0.8-0.5,1.6-1.4,1.6c-0.8,0.1-1.6-0.5-1.6-1.4
			C459.5,102.7,459.5,102.6,459.5,102.5z"/>
	</g>
	<g>
		<path class="st1" d="M476.8,46.3l1.5-12.8l1.5,12.8c0.1,0.8-0.5,1.6-1.3,1.7c-0.8,0.1-1.6-0.5-1.7-1.3
			C476.7,46.5,476.7,46.4,476.8,46.3z"/>
	</g>
	<g>
		<path class="st1" d="M495,121.8l1-11.5l1,11.5c0,0.6-0.4,1-0.9,1.1c-0.6,0-1-0.4-1.1-0.9C495,121.9,495,121.8,495,121.8z"/>
	</g>
	<g>
		<path class="st1" d="M543,88.5l1.5-14.5l1.5,14.5c0.1,0.8-0.5,1.6-1.3,1.7s-1.6-0.5-1.7-1.3C543,88.7,543,88.6,543,88.5z"/>
	</g>
</g>
<g id="Layer_2">
	<g>
		<path class="st1" d="M97.7,120l1.7-17l1.3,17c0.1,0.8-0.6,1.6-1.4,1.6c-0.8,0.1-1.6-0.6-1.6-1.4C97.7,120.2,97.7,120.1,97.7,120z"
			/>
	</g>
	<g>
		<path class="st1" d="M169.8,124.8l1-23.5l1,23.5c0,0.6-0.4,1-1,1C170.2,125.8,169.8,125.4,169.8,124.8
			C169.7,124.8,169.7,124.8,169.8,124.8z"/>
	</g>
	<g>
		<path class="st1" d="M243,167.3l1.5-18.5l1.5,18.5c0.1,0.8-0.5,1.6-1.4,1.6c-0.8,0.1-1.6-0.5-1.6-1.4
			C243,167.4,243,167.3,243,167.3z"/>
	</g>
	<g>
		<path class="st1" d="M188.5,52.5l1.5-16.3l1.5,16.3c0.1,0.8-0.5,1.6-1.4,1.6s-1.6-0.5-1.6-1.4C188.5,52.7,188.5,52.6,188.5,52.5z"
			/>
	</g>
	<g>
		<path class="st1" d="M318.8,142.5l1.5-16.3l1.5,16.3c0.1,0.8-0.5,1.6-1.4,1.6c-0.8,0.1-1.6-0.5-1.6-1.4
			C318.7,142.7,318.7,142.6,318.8,142.5z"/>
	</g>
	<g>
		<path class="st1" d="M745.5,169.3l1.5-17.6l1.5,17.6c0.1,0.8-0.5,1.6-1.4,1.6c-0.8,0.1-1.6-0.5-1.6-1.4
			C745.5,169.4,745.5,169.3,745.5,169.3z"/>
	</g>
	<g>
		<path class="st1" d="M596.3,154.3l1-15.1l1,15.1c0,0.6-0.4,1-0.9,1.1c-0.6,0-1-0.4-1.1-0.9C596.3,154.4,596.3,154.4,596.3,154.3z"
			/>
	</g>
	<g>
		<path class="st1" d="M610.5,68.7l1.5-16.5l1.5,16.5c0.1,0.8-0.5,1.6-1.4,1.6c-0.8,0.1-1.6-0.5-1.6-1.4
			C610.5,68.8,610.5,68.8,610.5,68.7z"/>
	</g>
	<g>
		<path class="st1" d="M712.5,83.3L714,66l1.5,17.3c0.1,0.8-0.5,1.6-1.4,1.6c-0.8,0.1-1.6-0.5-1.6-1.4
			C712.5,83.5,712.5,83.4,712.5,83.3z"/>
	</g>
	<g>
		<path class="st1" d="M663,131.9l1-15.9l1,15.9c0,0.6-0.4,1-0.9,1.1s-1-0.4-1.1-0.9C663,132,663,131.9,663,131.9z"/>
	</g>
	<g>
		<path class="st1" d="M536.3,48.3l1-14.8l1,14.8c0,0.6-0.4,1-0.9,1.1s-1-0.4-1.1-0.9C536.3,48.4,536.3,48.4,536.3,48.3z"/>
	</g>
	<g>
		<path class="st1" d="M717.8,129.3l1.5-17.7l1.5,17.7c0.1,0.8-0.5,1.6-1.4,1.6s-1.6-0.5-1.6-1.4
			C717.8,129.5,717.8,129.4,717.8,129.3z"/>
	</g>
	<g>
		<path class="st1" d="M625.7,116l1-16l1,16c0,0.6-0.4,1-0.9,1.1c-0.6,0-1-0.4-1.1-0.9C625.7,116.1,625.7,116,625.7,116z"/>
	</g>
	<g>
		<path class="st1" d="M686.2,167.3l1.5-20.5l1.5,20.5c0.1,0.8-0.6,1.5-1.4,1.6c-0.8,0.1-1.5-0.6-1.6-1.4
			C686.2,167.5,686.2,167.4,686.2,167.3z"/>
	</g>
	<g>
		<path class="st1" d="M655,66l1-17.7l1,17.7c0,0.6-0.4,1-0.9,1.1c-0.6,0-1-0.4-1.1-0.9C655,66.1,655,66,655,66z"/>
	</g>
	<g>
		<path class="st1" d="M302.7,75.3l1-17.3l1,17.3c0,0.6-0.4,1-0.9,1.1c-0.6,0-1-0.4-1.1-0.9C302.7,75.3,302.7,75.3,302.7,75.3z"/>
	</g>
	<g>
		<path class="st1" d="M538.2,148.8l1.5-14.4l1.5,14.4c0.1,0.8-0.5,1.6-1.3,1.7s-1.6-0.5-1.7-1.3C538.2,149,538.2,148.8,538.2,148.8
			z"/>
	</g>
</g>
</svg>
