<?xml version="1.0" encoding="utf-8"?>
<!-- Generator: Adobe Illustrator 22.1.0, SVG Export Plug-In . SVG Version: 6.00 Build 0)  -->
<svg version="1.1" id="Layer_1" xmlns="http://www.w3.org/2000/svg" xmlns:xlink="http://www.w3.org/1999/xlink" x="0px" y="0px"
	 viewBox="0 0 800 200" style="enable-background:new 0 0 800 200;" xml:space="preserve">
<style type="text/css">
	.st0{display:none;fill:#CCCCCC;stroke:#999999;stroke-miterlimit:10;}
	.st1{fill:#999999;}
</style>
<path class="st03" d="M768.4,181.8H32.5l-1-93.5c230.3-81.8,477.6-71,735.9,0L768.4,181.8z"/>
<g>
	<path class="st13" d="M51.8,86.7l1.5-12.5l1.5,12.5c0.1,0.8-0.5,1.6-1.3,1.7s-1.6-0.5-1.7-1.3C51.8,86.9,51.8,86.8,51.8,86.7z"/>
</g>
<g>
	<path class="st13" d="M98,126.4l1.5-12.3l1.5,12.3c0.1,0.8-0.5,1.6-1.3,1.7c-0.8,0.1-1.6-0.5-1.7-1.3
		C97.9,126.6,97.9,126.5,98,126.4z"/>
</g>
<g>
	<path class="st13" d="M350.4,162.7l1.5-20.5l1.5,20.5c0.1,0.8-0.6,1.5-1.4,1.6s-1.5-0.6-1.6-1.4
		C350.4,162.8,350.4,162.7,350.4,162.7z"/>
</g>
<g>
	<path class="st13" d="M158.7,69.7l1.5-13.8l1.5,13.8c0.1,0.8-0.5,1.6-1.3,1.7s-1.6-0.5-1.7-1.3C158.7,69.9,158.7,69.8,158.7,69.7z"
		/>
</g>
<g>
	<path class="st13" d="M109,75.6l1.5-12l1.5,12c0.1,0.8-0.5,1.6-1.3,1.7s-1.6-0.5-1.7-1.3C109,75.8,109,75.7,109,75.6z"/>
</g>
<g>
	<path class="st13" d="M77.5,171.8l1.5-14.5l1.5,14.5c0.1,0.8-0.5,1.6-1.3,1.7c-0.8,0.1-1.6-0.5-1.7-1.3
		C77.5,172,77.5,171.8,77.5,171.8z"/>
</g>
<g>
	<path class="st13" d="M145.7,147.8l1.5-11l1.5,11c0.1,0.8-0.5,1.6-1.3,1.7c-0.8,0.1-1.6-0.5-1.7-1.3
		C145.6,148.1,145.6,147.9,145.7,147.8z"/>
</g>
<g>
	<path class="st13" d="M211.5,127.5L213,113l1.5,14.5c0.1,0.8-0.5,1.6-1.3,1.7c-0.8,0.1-1.6-0.5-1.7-1.3
		C211.5,127.7,211.5,127.6,211.5,127.5z"/>
</g>
<g>
	<path class="st13" d="M43,130.4l1.5-9.3l1.5,9.3c0.1,0.8-0.4,1.6-1.3,1.7c-0.8,0.1-1.6-0.4-1.7-1.3C43,130.7,43,130.5,43,130.4z"/>
</g>
<g>
	<path class="st13" d="M245.4,92.3l1.5-11l1.5,11c0.1,0.8-0.5,1.6-1.3,1.7s-1.6-0.5-1.7-1.3C245.3,92.6,245.3,92.4,245.4,92.3z"/>
</g>
<g>
	<path class="st13" d="M274.8,60l1.5-11.5l1.5,11.5c0.1,0.8-0.5,1.6-1.3,1.7s-1.6-0.5-1.7-1.3C274.8,60.2,274.8,60.1,274.8,60z"/>
</g>
<g>
	<path class="st13" d="M384,97.6l1.5-13.3l1.5,13.3c0.1,0.8-0.5,1.6-1.3,1.7s-1.6-0.5-1.7-1.3C384,97.8,384,97.7,384,97.6z"/>
</g>
<g>
	<path class="st13" d="M361,36.1l1.5-12l1.5,12c0.1,0.8-0.5,1.6-1.3,1.7s-1.6-0.5-1.7-1.3C361,36.4,361,36.2,361,36.1z"/>
</g>
<g>
	<path class="st13" d="M394.8,60.4l1.5-11.8l1.5,11.8c0.1,0.8-0.5,1.6-1.3,1.7c-0.8,0.1-1.6-0.5-1.7-1.3
		C394.7,60.7,394.7,60.5,394.8,60.4z"/>
</g>
<g>
	<path class="st13" d="M409.1,151.6l1.5-14.8l1.5,14.8c0.1,0.8-0.5,1.6-1.3,1.7c-0.8,0.1-1.6-0.5-1.7-1.3
		C409,151.8,409,151.6,409.1,151.6z"/>
</g>
<g>
	<path class="st13" d="M475.6,165.2l1.5-12.8l1.5,12.8c0.1,0.8-0.5,1.6-1.3,1.7c-0.8,0.1-1.6-0.5-1.7-1.3
		C475.6,165.4,475.6,165.3,475.6,165.2z"/>
</g>
<g>
	<path class="st13" d="M462,97.6l1.5-16.3l1.5,16.3c0.1,0.8-0.5,1.6-1.4,1.6c-0.8,0.1-1.6-0.5-1.6-1.4C462,97.8,462,97.7,462,97.6z"
		/>
</g>
<g>
	<path class="st13" d="M459,39l1.5-12.8L462,39c0.1,0.8-0.5,1.6-1.3,1.7c-0.8,0.1-1.6-0.5-1.7-1.3C458.9,39.2,458.9,39.1,459,39z"/>
</g>
<g>
	<path class="st13" d="M503.2,112.8l1-11.5l1,11.5c0,0.6-0.4,1-0.9,1.1c-0.6,0-1-0.4-1.1-0.9C503.2,112.9,503.2,112.8,503.2,112.8z"
		/>
</g>
<g>
	<path class="st13" d="M556.3,88.5l1.5-14.5l1.5,14.5c0.1,0.8-0.5,1.6-1.3,1.7s-1.6-0.5-1.7-1.3C556.3,88.7,556.3,88.6,556.3,88.5z"
		/>
</g>
<g>
	<path class="st13" d="M150,111l1.7-17l1.3,17c0.1,0.8-0.6,1.6-1.4,1.6c-0.8,0.1-1.6-0.6-1.6-1.4C150,111.2,150,111.1,150,111z"/>
</g>
<g>
	<path class="st13" d="M193.3,166.7l1-23.5l1,23.5c0,0.6-0.4,1-1,1S193.3,167.3,193.3,166.7C193.2,166.7,193.2,166.7,193.3,166.7z"/>
</g>
<g>
	<path class="st13" d="M255.8,158l1.5-18.5l1.5,18.5c0.1,0.8-0.5,1.6-1.4,1.6c-0.8,0.1-1.6-0.5-1.6-1.4
		C255.8,158.1,255.8,158,255.8,158z"/>
</g>
<g>
	<path class="st13" d="M217.6,53.6l1.5-16.3l1.5,16.3c0.1,0.8-0.5,1.6-1.4,1.6s-1.6-0.5-1.6-1.4C217.6,53.8,217.6,53.7,217.6,53.6z"
		/>
</g>
<g>
	<path class="st13" d="M298,126.6l1.5-16.3l1.5,16.3c0.1,0.8-0.5,1.6-1.4,1.6c-0.8,0.1-1.6-0.5-1.6-1.4
		C297.9,126.8,297.9,126.7,298,126.6z"/>
</g>
<g>
	<path class="st13" d="M718.3,149.5l1.5-17.6l1.5,17.6c0.1,0.8-0.5,1.6-1.4,1.6c-0.8,0.1-1.6-0.5-1.6-1.4
		C718.3,149.6,718.3,149.5,718.3,149.5z"/>
</g>
<g>
	<path class="st13" d="M596.3,153.4l1-15.1l1,15.1c0,0.6-0.4,1-0.9,1.1c-0.6,0-1-0.4-1.1-0.9C596.3,153.5,596.3,153.5,596.3,153.4z"
		/>
</g>
<g>
	<path class="st13" d="M585.8,56l1.5-16.5l1.5,16.5c0.1,0.8-0.5,1.6-1.4,1.6c-0.8,0.1-1.6-0.5-1.6-1.4
		C585.8,56.1,585.8,56.1,585.8,56z"/>
</g>
<g>
	<path class="st13" d="M699.7,80.5l1.5-17.3l1.5,17.3c0.1,0.8-0.5,1.6-1.4,1.6c-0.8,0.1-1.6-0.5-1.6-1.4
		C699.7,80.7,699.7,80.6,699.7,80.5z"/>
</g>
<g>
	<path class="st13" d="M677.1,121.3l1-15.9l1,15.9c0,0.6-0.4,1-0.9,1.1s-1-0.4-1.1-0.9C677.1,121.4,677.1,121.3,677.1,121.3z"/>
</g>
<g>
	<path class="st13" d="M518.1,47.5l1-14.8l1,14.8c0,0.6-0.4,1-0.9,1.1s-1-0.4-1.1-0.9C518.1,47.6,518.1,47.6,518.1,47.5z"/>
</g>
<g>
	<path class="st13" d="M755,123.1l1.5-17.7l1.5,17.7c0.1,0.8-0.5,1.6-1.4,1.6s-1.6-0.5-1.6-1.4C755,123.3,755,123.2,755,123.1z"/>
</g>
<g>
	<path class="st13" d="M625.7,115.1l1-16l1,16c0,0.6-0.4,1-0.9,1.1c-0.6,0-1-0.4-1.1-0.9C625.7,115.2,625.7,115.1,625.7,115.1z"/>
</g>
<g>
	<path class="st13" d="M646.9,166.4l1.5-20.5l1.5,20.5c0.1,0.8-0.6,1.5-1.4,1.6c-0.8,0.1-1.5-0.6-1.6-1.4
		C646.9,166.6,646.9,166.5,646.9,166.4z"/>
</g>
<g>
	<path class="st13" d="M633.3,77.7l1-17.7l1,17.7c0,0.6-0.4,1-0.9,1.1c-0.6,0-1-0.4-1.1-0.9C633.3,77.8,633.3,77.7,633.3,77.7z"/>
</g>
<g>
	<path class="st13" d="M316.7,71.8l1-17.3l1,17.3c0,0.6-0.4,1-0.9,1.1c-0.6,0-1-0.4-1.1-0.9C316.7,71.8,316.7,71.8,316.7,71.8z"/>
</g>
<g>
	<path class="st13" d="M538.2,147.9l1.5-14.4l1.5,14.4c0.1,0.8-0.5,1.6-1.3,1.7s-1.6-0.5-1.7-1.3
		C538.2,148.1,538.2,147.9,538.2,147.9z"/>
</g>
</svg>
