<?xml version="1.0" encoding="utf-8"?>
<!-- Generator: Adobe Illustrator 22.1.0, SVG Export Plug-In . SVG Version: 6.00 Build 0)  -->
<svg version="1.1" id="Layer_1" xmlns="http://www.w3.org/2000/svg" xmlns:xlink="http://www.w3.org/1999/xlink" x="0px" y="0px"
	 viewBox="0 0 800 400" style="enable-background:new 0 0 800 400;" xml:space="preserve">
<style type="text/css">
	.st0{fill:url(#SVGID_1_);}
	.st1{fill:url(#SVGID_2_);}
</style>
<linearGradient id="SVGID_1_" gradientUnits="userSpaceOnUse" x1="144.6024" y1="92.2513" x2="144.6024" y2="-13.524" gradientTransform="matrix(1 0 0 1 0 200)">
	<stop  offset="0.1838" style="stop-color:#FFFFFF"/>
	<stop  offset="0.8803" style="stop-color:#6B6B6B"/>
</linearGradient>
<path class="st0" d="M300.8,238.2c0.9,21.1-123.3,49.3-234.7,53.4c-32.1,1.2-58.9,0.2-77.7-1c0-32.1,0-64.2,0-96.3
	c14.4-5.4,35.7-10.7,60.1-6.3c8.8,1.6,8,2.6,19.1,4.7c32.8,6.2,39.7-3,63.3,4.1c10,3,14.3,6.3,28.9,9.6c9.1,2,16.2,2.7,20.7,3
	c9.4,0.6,16.4,0,17.8-0.1C217.5,207.8,300,221.1,300.8,238.2z"/>
<linearGradient id="SVGID_2_" gradientUnits="userSpaceOnUse" x1="652.0951" y1="90.5392" x2="652.0951" y2="-3.0531" gradientTransform="matrix(1 0 0 1 0 200)">
	<stop  offset="0.2145" style="stop-color:#FFFFFF"/>
	<stop  offset="0.9154" style="stop-color:#666666"/>
</linearGradient>
<path class="st1" d="M809.1,206.1c0,27.8,0,55.6,0,83.4c-13.3,0.6-32.3,1.2-54.9,1c-105.7-0.5-257.7-16-259.1-41.5
	c-1-18.1,74.9-37,107.3-43c44.6-8.3,57.8-1.5,126.1-8c6.9-0.7,23.1-2.3,44.4,0.2C788.5,200.1,801,203.5,809.1,206.1z"/>
</svg>
