<?xml version="1.0" encoding="utf-8"?>
<!-- Generator: Adobe Illustrator 22.1.0, SVG Export Plug-In . SVG Version: 6.00 Build 0)  -->
<svg version="1.1" id="Layer_1" xmlns="http://www.w3.org/2000/svg" xmlns:xlink="http://www.w3.org/1999/xlink" x="0px" y="0px"
	 viewBox="0 0 800 400" style="enable-background:new 0 0 800 400;" xml:space="preserve">
<style type="text/css">
	.st0{fill:#999999;}
</style>
<path class="st0" d="M785.9,303.5V199.7h-4.4c1.9-7.4,3.4-17.3,4.4-28.7c0.8-9.4,1.6-19.8,1.3-30.8c-1.2-40.1-11.8-66.3-14-74.3
	c-3.3-11.9-15.5,19.9-13.9,64c-3.9-4.6-8.4-7.2-13.1-7.2c-1.3,0-2.6,0.2-3.8,0.6c-0.6-12.7-5.5-25.9-8.5-25.9
	c-3.4,0-3.8,16.2-3.8,31.5c0,1.6,0,3.3,0.1,4.8c-8.7,14.5-7.9,16.3-9.4,26.2c-1-2.1-2.2-3.3-3.4-3.3c-4,0-7.3,13-7.3,29l-2.5,3.3
	c-2.8-0.6-3.8-1.8-6.2-3.6c-2.9-2.2-1.6-16.8-9.1-3.2c-1.7-6.4-3-11-6-11c-2.2,0-7,7.3-8.7,11c-1.5-12.7-5.4-19.2-8.2-21.5
	c-10.3-8.7-11.2,13.6-9.1,38.2c0.6,6.5-5,18.5-4.3,23.8c0,5.7-1.8,9.5-4.8,14c-26.4,39.5-21.5,28.2-46.5,37.8
	c-15.2,5.8-21.3,15.1-23.7,22.3c-8.4-11.2-26.1-28.3-57.4-53.9c0.1-1.9,0.1-3.9,0.1-5.9c0-23.1-4.3-43-10.6-52.2
	c-2.4-3.5-6.5-3-7.8-5.4c-4.9-9.4-8.7,0-11.6,13.1v0c0,11.4-2.3,21.9-6.1,30.2c-5.4,11.9-14,19.5-23.6,19.5
	c-8.9,0-19.2-48.2-22-100.8c0,0,0,0,0,0c0.2-5.9,0.3-12.1,0.3-18.5c0-39.8-4.2-72.1-9.3-72.1s-9.3,32.3-9.3,72.1v1.3
	c-1.2-3.5-3.5-4.1-4-5.4c-4.6-13.9-7.8,14.8-8.9,40c-2.5-15.3-5.9-24.2-10.7-11.3c-0.1,0.3-0.7,0-1,0.1c-0.1-56.5-10.7-102-23.7-102
	c-12.4,0-22.6,41.6-23.6,94.5c-0.6-0.4-1.4-0.1-1.8-0.6c-11.7-13.5-12.8,12.6-10.9,41.2c-1.1-0.8-3.2-0.1-3.6-1.2
	c-4.5-13.3-10.9,4.2-13.9,28.4c-0.8-0.2-2.1,0.4-2.3-0.4c-5.3-13.8-11.9-1-15.6,24.8v0c0,2.6-0.2,5.4-0.6,8.2c0,0.2,0,0.3,0,0.5
	c-9.6-10.7-14,16.5-43.9,47.3c-5,5.1-12.1,16.9-13.2,12.3h-47c-16.6-12.6-32.3-42.7-40.5-70.2c-1.5-4.8-2.7-9.6-3.6-14.2
	c-0.2-0.3-0.4-0.6-0.6-0.9c0.1-0.4,0.1-0.9,0.2-1.4c-0.9-4.9-1.6-9.5-1.9-13.8v0c-1.4-3.1-3.3-5-5.5-5c-3.2,0-6,4.2-7,10.2
	c-3-0.9-6.2-1.5-9.5-1.5c-8.4,0-15.9,3.2-21,8.3c-0.7,0.7-3.7,4.4-1.9,2.1c0.3-1.2,0.5-2.5,0.8-3.9c0.4-2.8,0.7-6.1,0.7-9.5
	c0-11.8-2.8-21.3-6.3-21.3c-3.5,0-6.3,9.4-6.3,21c-1.9-0.6-3.9-1-6-1c-2.1,0-4.2,0.4-6.2,1c0.1-1.8,0.2-3.6,0.2-5.5
	c0-5.6-0.5-10.9-1.4-15.9c0.3-3.7,0.4-7.7,0.4-11.8c0-14.6-1.7-27.4-4.4-34.7c0-1.1,0-2.2,0-3.4c0-12.7-1.1-23-2.5-23
	c-1.3,0-2.4,8.7-2.5,20c0,0,0,0,0,0c-3.7,0-6.9,9.3-8.4,22.9c-1.4-0.6-2.9-0.9-4.5-0.9c-0.5,0-0.9,0-1.3,0.1V148
	c0-39.1-11.8-70.8-26.3-70.8c-3.2,0-6.2,1.5-9,4.3c-0.8-27-4.3-47.4-8.6-47.4c-4.8,0-8.8,26.4-8.8,59c0,11.8,0.5,22.8,1.4,32.1
	C7.7,132.3,7.2,140,7.2,148c0,22.5,3.9,42.6,10,55.6v99.9h-4v89H791v-89H785.9z"/>
</svg>
