<?xml version="1.0" encoding="utf-8"?>
<!-- Generator: Adobe Illustrator 22.1.0, SVG Export Plug-In . SVG Version: 6.00 Build 0)  -->
<svg version="1.1" id="Layer_1" xmlns="http://www.w3.org/2000/svg" xmlns:xlink="http://www.w3.org/1999/xlink" x="0px" y="0px"
	 viewBox="0 0 400 400" style="enable-background:new 0 0 400 400;" xml:space="preserve">
<style type="text/css">
	.st0{fill:url(#SVGID_1_);}
	.st1{fill:#FFFFFF;stroke:#000000;stroke-miterlimit:10;}
</style>
<linearGradient id="SVGID_1_" gradientUnits="userSpaceOnUse" x1="221.5887" y1="160.549" x2="221.5887" y2="352.5308">
	<stop  offset="0.1504" style="stop-color:#F7F7F7"/>
	<stop  offset="0.665" style="stop-color:#969696"/>
</linearGradient>
<path class="st0" d="M-101.5,341.7c-0.1-2.4,22.1-2.4,57.8-15.4c8.4-3.1,23.1-8.5,40.2-18.3c12.4-7.1,14-9.6,35.3-23.6
	c24.6-16.1,23.2-13.3,32.4-20.3c9.1-7,27.2-20.9,37.3-42.6c4.4-9.5,10-26.2,19.1-36.6c4.5-5.1,9.4-8.1,12.3-9.7
	c5.1-3.1,7.7-4.6,10.9-4.3c4.8,0.4,8,4.2,13.6,3.9c0.6,0,1.7,0,2.9-0.5c2.7-1,3.6-3.3,10.8-5.6c9.7-3.1,14.1-0.8,24-4.9
	c4.1-1.7,3.7-2.2,6.4-2.8c2.5-0.6,8.5-1.3,21.1,3.7c11.7,4.6,10.9,9.5,20.6,11.8c9.9,2.3,14.7-1.9,21.6,2c3.9,2.3,3.4,4.3,8.8,7.7
	c5,3.2,8.7,3.4,12.3,4.9c9.2,3.7,11.8,12.8,14.7,19.5c4.6,10.4,6.9,8.1,25,31.3c9.3,11.9,7.1,11.7,14,20c3.5,4.3,8.8,9.4,19.4,19.8
	c5.4,5.3,8.1,8,9.8,9.3c9.1,7.5,17.8,11.3,26.5,15c23.9,10.4,35.8,15.8,38.2,16.7c46.8,17.2,111.6,24,111.3,27.6
	c-0.4,4.5-98.4,1.3-192.6-0.4c-22.1-0.4-63.6-0.8-146.6-1.6C39.9,346.6-101.1,347.7-101.5,341.7z"/>
<path class="st1" d="M359.3,165.9"/>
<path class="st1" d="M449,112"/>
</svg>
