<?xml version="1.0" encoding="utf-8"?>
<!-- Generator: Adobe Illustrator 22.1.0, SVG Export Plug-In . SVG Version: 6.00 Build 0)  -->
<svg version="1.1" id="Layer_1" xmlns="http://www.w3.org/2000/svg" xmlns:xlink="http://www.w3.org/1999/xlink" x="0px" y="0px"
	 viewBox="0 0 800 400" style="enable-background:new 0 0 800 400;" xml:space="preserve">
<style type="text/css">
	.st0{fill:url(#SVGID_1_);stroke:#E6E6E6;stroke-miterlimit:10;}
	.st1{fill:#E6E6E6;stroke:#E6E6E6;stroke-miterlimit:10;}
</style>
<linearGradient id="SVGID_1_" gradientUnits="userSpaceOnUse" x1="397.171" y1="125.9976" x2="397.171" y2="318.1449">
	<stop  offset="9.430337e-02" style="stop-color:#CCCCCC"/>
	<stop  offset="0.5869" style="stop-color:#848484"/>
	<stop  offset="0.8248" style="stop-color:#666666"/>
</linearGradient>
<path class="st0" d="M788.9,318.1H5.5V216.1c3.6-21,11.9-32.7,19-39.6c10.6-10.2,16.8-8,28-20.5c11.2-12.5,12-22.5,21.5-24.5
	c4.5-0.9,4.8,1.2,18,3c13.6,1.8,14.4-0.3,20,2c6.2,2.6,9.9,7.5,17.5,17.5c7.3,9.6,7.5,12.7,13,16.5c6.7,4.6,13.4,5.2,15.9,5.5
	c17.7,2.3,28,16.1,47.6,31.5c0,0,20.5,16.2,48.7,29.5c36.7,17.4,70.9,16.8,117.3,16c31.1-0.5,55-4.2,71.5-7.5
	c27-5.4,22.2-9.6,64-21.5c24.5-7,35-8.5,48-19c7.9-6.4,15.5-15.2,23.5-24.5c12.7-14.7,19.7-26.4,29-25.5c4.3,0.4,7.8,3.4,12.5,1.5
	c3.2-1.3,3.8-3.6,6.5-6.5c5.4-5.9,10.2-3.6,19.5-9.5c10.1-6.4,10.2-9.2,17-12c8.7-3.5,16.9-2.4,20-2c6.7,0.9,8.4,2.7,16,5
	c14.1,4.2,16.5,0.5,25.5,3.5c7.8,2.6,8.4,6.3,27,25.5c14.1,14.6,14.4,13,19.3,19.3c10.5,13.6,15.3,27.2,17.6,36.3
	C788.9,250.1,788.9,284.1,788.9,318.1z"/>
<path class="st1" d="M393.5,98.5"/>
<path class="st1" d="M327.5,101"/>
<path class="st1" d="M361.5,130"/>
<path class="st1" d="M454.5,137.5"/>
</svg>
